<svg xmlns="http://www.w3.org/2000/svg" width="1200" height="760" viewBox="0 0 1200 760">
    <defs><linearGradient id="bg" x1="0" y1="0" x2="1" y2="1"><stop stop-color="#121826"/><stop offset="1" stop-color="#2b1530"/></linearGradient></defs>
    
        <rect x="0" y="0" width="1200" height="760" rx="44" fill="url(#bg)"/>
        <circle cx="930" cy="120" r="190" fill="#ff4f8b" opacity=".13"/>
        <circle cx="220" cy="180" r="180" fill="#6a5cff" opacity=".14"/>
        <rect x="120" y="130" width="960" height="500" rx="38" fill="rgba(255,255,255,.07)" stroke="rgba(255,255,255,.15)"/>
        <rect x="210" y="210" width="320" height="250" rx="34" fill="#f5d0b8"/>
        <rect x="670" y="210" width="320" height="250" rx="34" fill="#d6a17d"/>
        <path d="M420 430 C500 365 575 350 630 390 C675 420 700 445 760 425" stroke="#f3c7aa" stroke-width="82" stroke-linecap="round" fill="none"/>
        <path d="M530 390 C610 340 690 365 760 430" stroke="#d6a17d" stroke-width="82" stroke-linecap="round" fill="none"/>
        <rect x="365" y="470" width="470" height="62" rx="31" fill="rgba(0,0,0,.32)"/>
        
    <rect x="150" y="600" width="900" height="56" rx="28" fill="rgba(0,0,0,.42)"/>
    <text x="600" y="629" text-anchor="middle" font-family="Arial, sans-serif" font-size="25" font-weight="800" fill="#fff">계약 체결</text>
    <text x="600" y="656" text-anchor="middle" font-family="Arial, sans-serif" font-size="15" fill="#cbd5e1">프랜차이즈 본부 CRM 코드 제공</text>
    </svg>